<!DOCTYPE svg PUBLIC "-//W3C//DTD SVG 1.1//EN" "http://www.w3.org/Graphics/SVG/1.1/DTD/svg11.dtd">
<!-- Uploaded to: SVG Repo, www.svgrepo.com, Transformed by: SVG Repo Mixer Tools -->
<svg height="800px" width="800px" version="1.1" id="Layer_1" xmlns="http://www.w3.org/2000/svg" xmlns:xlink="http://www.w3.org/1999/xlink" viewBox="0 0 511.999 511.999" xml:space="preserve" fill="#000000" transform="matrix(-1, 0, 0, 1, 0, 0)">
<g id="SVGRepo_bgCarrier" stroke-width="0"/>
<g id="SVGRepo_tracerCarrier" stroke-linecap="round" stroke-linejoin="round"/>
<g id="SVGRepo_iconCarrier"> <path style="fill:#b57245;" d="M75.824,199.727c31.308-116.88,150.68-186.436,266.628-155.358 C458.398,75.447,527.011,195.39,495.703,312.27c-31.308,116.881-150.68,186.436-266.625,155.359 C113.129,436.551,44.517,316.608,75.824,199.727L75.824,199.727z"/> <path d="M344.719,35.915c-19.077-5.114-38.679-7.706-58.259-7.706c-63.123,0-121.589,26.505-163.391,70.21H17.5V13.114 c0-4.834-3.917-8.753-8.749-8.753S0,8.281,0,13.114v485.771c0,4.834,3.917,8.753,8.749,8.753s8.749-3.919,8.749-8.753V413.58 h104.453c27.635,29.223,63.339,51.376,104.86,62.505c19.076,5.113,38.677,7.706,58.256,7.706 c102.303,0,192.396-69.6,219.089-169.254C536.664,193.182,465.14,68.194,344.719,35.915z M17.5,396.074v-280.15h90.444 c-18.435,23.652-32.447,51.197-40.574,81.537c-19.156,71.518-2.172,144.289,39.648,198.612H17.5z M487.249,310.006 c-24.647,92.014-107.786,156.279-202.18,156.279c-18.05,0-36.125-2.392-53.725-7.109C120.242,429.397,54.27,314.024,84.279,201.993 C108.926,109.979,192.066,45.715,286.46,45.715c18.05,0,36.126,2.392,53.726,7.109C451.285,82.604,517.257,197.975,487.249,310.006z M394.648,179.053h-9.968v-10.997c0-4.834-3.917-8.753-8.749-8.753h-57.228c-4.833,0-8.749,3.919-8.749,8.753 c0,4.835,3.917,8.753,8.749,8.753h48.479v10.997v52.46c0,34.99-28.209,63.457-62.881,63.457h-39.596 c-34.674,0-62.881-28.466-62.881-63.457v-63.457h47.201c-2.688,6.703-4.231,13.988-4.415,21.261 c-0.357,14.163,4.346,26.57,13.241,34.935c1.689,1.589,3.842,2.375,5.991,2.375c2.33,0,4.655-0.926,6.376-2.758 c3.31-3.522,3.139-9.061-0.382-12.372c-11.825-11.12-9.196-33.851,1.055-46.747c14.823-18.647,18.036-51.938-1.054-69.894 c-3.52-3.311-9.058-3.141-12.367,0.381c-3.311,3.522-3.14,9.061,0.381,12.372c9.808,9.226,10.276,29.098,1.658,42.94H253.8h-6.628 h-54.1c-4.833,0-8.749,3.919-8.749,8.753v72.209c0,44.643,36.059,80.962,80.381,80.962h39.596c34.44,0,63.882-21.935,75.302-52.659 h15.048c20.7,0,37.541-16.947,37.541-37.777v-13.962C432.189,195.999,415.349,179.053,394.648,179.053z M414.691,230.791 c0,11.178-8.99,20.272-20.042,20.272h-9.968v-10.797v-43.707h9.968c11.051,0,20.042,9.093,20.042,20.271V230.791z M398.524,366.349 c0,4.834-3.917,8.753-8.749,8.753H179.231c-4.833,0-8.749-3.919-8.749-8.753c0-4.834,3.917-8.753,8.749-8.753h210.543 C394.607,357.597,398.524,361.516,398.524,366.349z"/> </g>
</svg>