<?xml version="1.0" encoding="iso-8859-1"?>
<!-- Uploaded to: SVG Repo, www.svgrepo.com, Generator: SVG Repo Mixer Tools -->
<svg fill="#ffffff" height="800px" width="800px" version="1.1" id="Capa_1" xmlns="http://www.w3.org/2000/svg" xmlns:xlink="http://www.w3.org/1999/xlink"
	 viewBox="0 0 368.554 368.554" xml:space="preserve">
<g>
	<g>
		<path d="M222.524,176.854h-76.495c-24.138,0-43.775,19.638-43.775,43.775v39.57h164.045v-39.57
			C266.299,196.491,246.662,176.854,222.524,176.854z M188.809,191.854l-4.532,6.514l-4.532-6.514H188.809z M117.254,220.629
			c0-15.867,12.908-28.775,28.775-28.775h15.442l13.669,19.645L151.691,245.2h-34.437V220.629z M184.277,224.63l14.312,20.569
			h-28.624L184.277,224.63z M251.299,245.199h-34.437l-23.449-33.701l13.669-19.645h15.442c15.867,0,28.775,12.909,28.775,28.775
			V245.199z"/>
		<path d="M184.277,173.328c24.271,0,44.016-19.746,44.016-44.017s-19.746-44.016-44.016-44.016s-44.016,19.746-44.016,44.016
			C140.261,153.582,160.006,173.328,184.277,173.328z M184.277,100.295c16,0,29.016,13.017,29.016,29.016
			c0,16-13.017,29.017-29.016,29.017s-29.016-13.017-29.016-29.017C155.261,113.312,168.277,100.295,184.277,100.295z"/>
		<path d="M368.554,224.277v-80h-57.383c-2.324-7.371-5.302-14.543-8.896-21.43l40.589-40.589L286.296,25.69l-40.589,40.589
			c-6.887-3.594-14.06-6.572-21.43-8.896V0h-80v57.383c-7.37,2.324-14.543,5.302-21.43,8.896l-40.589-40.59L25.689,82.258
			l40.589,40.589c-3.594,6.886-6.572,14.059-8.896,21.43H0v80h57.383c2.324,7.37,5.302,14.543,8.896,21.43L25.69,286.296
			l56.568,56.568l40.589-40.589c6.887,3.594,14.06,6.572,21.43,8.896v57.383h80v-57.383c7.37-2.324,14.543-5.302,21.43-8.896
			l40.589,40.589l56.568-56.568l-40.589-40.589c3.594-6.887,6.572-14.06,8.896-21.43L368.554,224.277L368.554,224.277z
			 M321.651,286.296l-35.355,35.355l-38.037-38.037l-4.986,2.885c-8.957,5.181-18.523,9.152-28.434,11.801l-5.563,1.487v53.767h-50
			v-53.767l-5.563-1.487c-9.91-2.649-19.477-6.62-28.434-11.801l-4.986-2.885l-38.037,38.037l-35.355-35.355l38.037-38.037
			l-2.885-4.986c-5.181-8.957-9.152-18.523-11.801-28.434l-1.487-5.563H15v-50h53.767l1.487-5.563
			c2.649-9.911,6.62-19.477,11.801-28.433l2.885-4.986L46.902,82.258l35.355-35.355l38.037,38.037l4.986-2.885
			c8.957-5.181,18.523-9.152,28.434-11.801l5.563-1.487V15h50v53.767l5.563,1.487c9.91,2.649,19.477,6.62,28.434,11.801l4.986,2.885
			l38.037-38.037l35.355,35.355l-38.037,38.037l2.885,4.986c5.181,8.956,9.151,18.522,11.801,28.433l1.487,5.563h53.767v50h-53.767
			l-1.487,5.563c-2.649,9.91-6.62,19.477-11.801,28.434l-2.885,4.986L321.651,286.296z"/>
	</g>
	<g>
	</g>
	<g>
	</g>
	<g>
	</g>
	<g>
	</g>
	<g>
	</g>
	<g>
	</g>
	<g>
	</g>
	<g>
	</g>
	<g>
	</g>
	<g>
	</g>
	<g>
	</g>
	<g>
	</g>
	<g>
	</g>
	<g>
	</g>
	<g>
	</g>
</g>
</svg>