<?xml version="1.0" encoding="iso-8859-1"?>
<!-- Uploaded to: SVG Repo, www.svgrepo.com, Generator: SVG Repo Mixer Tools -->
<svg height="800px" width="800px" version="1.1" id="Layer_1" xmlns="http://www.w3.org/2000/svg" xmlns:xlink="http://www.w3.org/1999/xlink" 
	 viewBox="0 0 380.461 380.461" xml:space="preserve">
<g>
	<polyline style="fill:#F7B239;" points="366.36,78.2 366.36,106.32 333.02,106.32 47.44,106.32 14.1,106.32 14.1,78.2 94.82,78.2 
		108.06,78.2 272.4,78.2 285.641,78.2 366.36,78.2 	"/>
	<polyline style="fill:#F7B239;" points="333.02,106.32 333.02,138.41 206.1,138.41 174.36,138.41 47.44,138.41 47.44,106.32 
		333.02,106.32 	"/>
	<path style="fill:#E6E6E6;" d="M310.31,50.25v3.28c0,13.62-11.05,24.67-24.67,24.67H272.4c-13.62,0-24.67-11.05-24.67-24.67V6
		h62.58v16.44V50.25"/>
	<polyline style="fill:#F7B239;" points="250.849,345.38 258.3,374.46 122.17,374.46 129.613,345.38 177.965,345.38 202.497,345.38 
		250.849,345.38 	"/>
	<polyline style="fill:#A17A36;" points="156.077,351.38 134.271,351.38 129.899,368.46 151.706,368.46 156.077,351.38 	"/>
	<polyline style="fill:#F7B239;" points="206.1,138.41 206.1,345.38 174.36,345.38 174.36,138.41 206.1,138.41 	"/>
	<path style="fill:#E6E6E6;" d="M132.73,6v47.53c0,13.62-11.05,24.67-24.67,24.67H94.82c-13.62,0-24.66-11.05-24.66-24.67v-3.28
		V22.44V6H132.73"/>
	<path style="fill:#979797;" d="M92.827,12H76.16v41.53c0,10.295,8.371,18.67,18.66,18.67h6.554
		c-5.234-4.523-8.547-11.21-8.547-18.67v-3.28V22.44L92.827,12"/>
	<path style="fill:#979797;" d="M270.397,12H253.73v41.53c0,10.295,8.375,18.67,18.67,18.67h6.543
		c-5.234-4.523-8.547-11.21-8.547-18.67v-3.28V22.44V12"/>
	<path style="fill:#333333;" d="M366.36,72.2h-56.411c3.464-4.499,5.707-9.981,6.234-15.95h2.547c9.44,0,17.12-7.676,17.12-17.11
		v-5.59c0-9.434-7.68-17.11-17.12-17.11h-2.42V6c0-3.314-2.686-6-6-6h-62.58c-3.314,0-6,2.687-6,6v47.53
		c0,7.021,2.377,13.495,6.362,18.67H132.368c3.984-5.176,6.361-11.649,6.361-18.67V6c0-3.314-2.687-6-6-6H70.16
		c-3.313,0-6,2.687-6,6v10.44h-2.43c-9.435,0-17.11,7.676-17.11,17.11v5.59c0,9.434,7.675,17.11,17.11,17.11h2.554
		c0.528,5.969,2.772,11.451,6.235,15.95H14.1c-3.313,0-6,2.686-6,6v28.12c0,3.314,2.687,6,6,6h27.34v26.091c0,3.313,2.686,6,6,6
		h120.92v194.97h-38.747c-2.741,0-5.133,1.857-5.812,4.512l-7.443,29.08c-0.46,1.796-0.063,3.703,1.073,5.167
		c1.137,1.464,2.886,2.321,4.74,2.321H258.3c1.854,0,3.604-0.857,4.74-2.321c1.137-1.464,1.532-3.372,1.072-5.168l-7.45-29.08
		c-0.681-2.655-3.072-4.511-5.813-4.511H212.1V144.41h120.92c3.313,0,6-2.687,6-6v-26.09h27.34c3.314,0,6-2.686,6-6V78.2
		C372.36,74.886,369.674,72.2,366.36,72.2 M316.31,28.44h2.42c2.823,0,5.12,2.292,5.12,5.11v5.59c0,2.817-2.297,5.11-5.12,5.11
		h-2.42V28.44 M56.62,39.14v-5.59c0-2.818,2.292-5.11,5.11-5.11h2.43v15.81h-2.43C58.913,44.25,56.62,41.958,56.62,39.14 M253.73,12
		h50.58v41.53c0,10.295-8.375,18.67-18.67,18.67H272.4c-10.295,0-18.67-8.375-18.67-18.67V12 M76.16,12h50.57v41.53
		c0,10.295-8.376,18.67-18.67,18.67H94.82c-10.289,0-18.66-8.375-18.66-18.67V12 M246.193,351.38l4.375,17.08H129.899l4.372-17.08
		H246.193 M180.36,339.38V144.41h19.74v194.97H180.36 M327.02,132.41H206.1h-31.74H53.44v-20.09h273.58V132.41 M360.36,100.32H20.1
		V84.2h340.26L360.36,100.32"/>
	<polyline style="fill:#A17A36;" points="79.64,84.2 20.1,84.2 20.1,100.32 79.64,100.32 79.64,84.2 	"/>
	<polyline style="fill:#333333;" points="79.64,78.2 14.1,78.2 14.1,105.45 79.64,105.45 79.64,100.32 20.1,100.32 20.1,84.2 
		79.64,84.2 79.64,78.2 	"/>
	<polyline style="fill:#A17A36;" points="327.02,112.32 53.44,112.32 53.44,132.41 115.941,132.41 115.941,124.45 327.02,124.45 
		327.02,112.32 	"/>
	<polyline style="fill:#333333;" points="332.641,105.784 45.973,105.784 45.973,124.45 50.401,124.45 50.401,137.083 
		115.941,137.083 115.941,132.41 53.44,132.41 53.44,112.32 327.02,112.32 327.02,124.45 332.641,124.45 332.641,105.784 	"/>
	<polyline style="fill:#A17A36;" points="200.1,144.41 180.36,144.41 180.36,339.38 185.64,339.38 185.64,179.783 200.1,179.783 
		200.1,144.41 	"/>
	<polyline style="fill:#333333;" points="205.973,138.407 174.362,138.407 174.362,179.783 175.64,179.783 175.64,346.45 
		185.64,346.45 185.64,339.38 180.36,339.38 180.36,144.41 200.1,144.41 200.1,179.783 205.973,179.783 205.973,138.407 	"/>
	<path style="fill:#FFFFFF;" d="M294.641,55.117c-3.313,0-6-2.686-6-6V21.784c0-3.314,2.687-6,6-6s6,2.686,6,6v27.333
		C300.641,52.431,297.954,55.117,294.641,55.117z"/>
	<path style="fill:#FFFFFF;" d="M116.14,55.117c-3.313,0-6-2.686-6-6V21.784c0-3.314,2.687-6,6-6s6,2.686,6,6v27.333
		C122.14,52.431,119.453,55.117,116.14,55.117z"/>
</g>
</svg>